<svg xmlns="http://www.w3.org/2000/svg" viewBox="0 0 203 203">
  <path fill="#000091" d="M1 0h6v6H1z" />
  <path fill="#000091" d="M6 0h6v6H6zM12 0h6v6h-6z" />
  <path fill="#000091" d="M17 0h6v6h-6zM23 0h6v6h-6z" />
  <path
    fill="#000091"
    d="M28 0h6v6h-6zM34 0h6v6h-6zM44 0h6v6h-6zM77 0h6v6h-6z"
  />
  <path fill="#000091" d="M82 0h6v6h-6zM99 0h6v6h-6z" />
  <path
    fill="#000091"
    d="M104 0h6v6h-6zM1 5h6v6H1zM34 5h6v6h-6zM44 5h6v6h-6zM55 5h6v6h-6zM66 5h6v6h-6z"
  />
  <path
    fill="#000091"
    d="M71 5h6v6h-6zM82 5h6v6h-6zM99 5h6v6h-6zM1 11h6v6H1zM12 11h6v6h-6z"
  />
  <path
    fill="#000091"
    d="M17 11h6v6h-6zM23 11h6v6h-6zM34 11h6v6h-6zM44 11h6v6h-6zM50 11h6v6h-6z"
  />
  <path fill="#000091" d="M55 11h6v6h-6zM66 11h6v6h-6z" />
  <path fill="#000091" d="M71 11h6v6h-6zM82 11h6v6h-6zM88 11h6v6h-6z" />
  <path fill="#000091" d="M93 11h6v6h-6zM1 16h6v6H1zM12 16h6v6h-6z" />
  <path
    fill="#000091"
    d="M17 16h6v6h-6zM23 16h6v6h-6zM34 16h6v6h-6zM50 16h6v6h-6z"
  />
  <path fill="#000091" d="M55 16h6v6h-6zM66 16h6v6h-6z" />
  <path fill="#000091" d="M71 16h6v6h-6zM82 16h6v6h-6zM88 16h6v6h-6z" />
  <path fill="#000091" d="M93 16h6v6h-6zM1 22h6v6H1zM12 22h6v6h-6z" />
  <path
    fill="#000091"
    d="M17 22h6v6h-6zM23 22h6v6h-6zM34 22h6v6h-6zM50 22h6v6h-6zM61 22h6v6h-6zM71 22h6v6h-6zM88 22h6v6h-6zM1 27h6v6H1z"
  />
  <path fill="#000091" d="M34 27h6v6h-6zM44 27h6v6h-6zM50 27h6v6h-6z" />
  <path fill="#000091" d="M55 27h6v6h-6zM61 27h6v6h-6z" />
  <path fill="#000091" d="M66 27h6v6h-6z" />
  <path
    fill="#000091"
    d="M71 27h6v6h-6zM82 27h6v6h-6zM99 27h6v6h-6zM1 33h6v6H1z"
  />
  <path fill="#000091" d="M6 33h6v6H6zM12 33h6v6h-6z" />
  <path fill="#000091" d="M17 33h6v6h-6zM23 33h6v6h-6z" />
  <path
    fill="#000091"
    d="M28 33h6v6h-6zM34 33h6v6h-6zM44 33h6v6h-6zM55 33h6v6h-6zM66 33h6v6h-6zM77 33h6v6h-6zM88 33h6v6h-6zM99 33h6v6h-6z"
  />
  <path fill="#000091" d="M44 38h6v6h-6zM55 38h6v6h-6zM61 38h6v6h-6z" />
  <path fill="#000091" d="M66 38h6v6h-6zM12 43h6v6h-6z" />
  <path
    fill="#000091"
    d="M17 43h6v6h-6zM23 43h6v6h-6zM34 43h6v6h-6zM44 43h6v6h-6zM61 43h6v6h-6z"
  />
  <path fill="#000091" d="M66 43h6v6h-6zM88 43h6v6h-6z" />
  <path fill="#000091" d="M93 43h6v6h-6zM104 43h6v6h-6zM23 49h6v6h-6z" />
  <path
    fill="#000091"
    d="M28 49h6v6h-6zM39 49h6v6h-6zM55 49h6v6h-6zM61 49h6v6h-6zM71 49h6v6h-6zM88 49h6v6h-6zM99 49h6v6h-6zM1 54h6v6H1zM12 54h6v6h-6z"
  />
  <path
    fill="#000091"
    d="M17 54h6v6h-6zM34 54h6v6h-6zM44 54h6v6h-6zM66 54h6v6h-6zM82 54h6v6h-6zM93 54h6v6h-6zM6 60h6v6H6zM12 60h6v6h-6zM28 60h6v6h-6zM55 60h6v6h-6zM77 60h6v6h-6z"
  />
  <path
    fill="#000091"
    d="M1 65h6v6H1zM12 65h6v6h-6zM23 65h6v6h-6zM34 65h6v6h-6zM44 65h6v6h-6zM55 65h6v6h-6zM66 65h6v6h-6zM77 65h6v6h-6z"
  />
  <path fill="#000091" d="M82 65h6v6h-6zM88 65h6v6h-6z" />
  <path fill="#000091" d="M93 65h6v6h-6zM1 71h6v6H1z" />
  <path fill="#000091" d="M6 71h6v6H6zM17 71h6v6h-6zM23 71h6v6h-6z" />
  <path fill="#000091" d="M28 71h6v6h-6zM39 71h6v6h-6zM66 71h6v6h-6z" />
  <path fill="#000091" d="M71 71h6v6h-6zM99 71h6v6h-6z" />
  <path fill="#000091" d="M104 71h6v6h-6zM12 76h6v6h-6z" />
  <path fill="#000091" d="M17 76h6v6h-6zM28 76h6v6h-6zM34 76h6v6h-6z" />
  <path
    fill="#000091"
    d="M39 76h6v6h-6zM50 76h6v6h-6zM61 76h6v6h-6zM71 76h6v6h-6zM77 76h6v6h-6z"
  />
  <path fill="#000091" d="M82 76h6v6h-6zM12 81h6v6h-6z" />
  <path
    fill="#000091"
    d="M17 81h6v6h-6zM28 81h6v6h-6zM44 81h6v6h-6zM66 81h6v6h-6z"
  />
  <path
    fill="#000091"
    d="M71 81h6v6h-6zM77 81h6v6h-6zM88 81h6v6h-6zM99 81h6v6h-6zM12 87h6v6h-6zM23 87h6v6h-6zM34 87h6v6h-6z"
  />
  <path fill="#000091" d="M39 87h6v6h-6z" />
  <path fill="#000091" d="M44 87h6v6h-6zM50 87h6v6h-6z" />
  <path fill="#000091" d="M55 87h6v6h-6zM61 87h6v6h-6z" />
  <path fill="#000091" d="M66 87h6v6h-6zM77 87h6v6h-6z" />
  <path fill="#000091" d="M82 87h6v6h-6zM88 87h6v6h-6z" />
  <path fill="#000091" d="M93 87h6v6h-6zM99 87h6v6h-6zM1 92h6v6H1z" />
  <path
    fill="#000091"
    d="M6 92h6v6H6zM17 92h6v6h-6zM44 92h6v6h-6zM50 92h6v6h-6zM71 92h6v6h-6zM88 92h6v6h-6z"
  />
  <path fill="#000091" d="M93 92h6v6h-6zM99 92h6v6h-6zM23 98h6v6h-6z" />
  <path
    fill="#000091"
    d="M28 98h6v6h-6zM34 98h6v6h-6zM44 98h6v6h-6zM61 98h6v6h-6z"
  />
  <path
    fill="#000091"
    d="M66 98h6v6h-6zM88 98h6v6h-6zM99 98h6v6h-6zM23 103h6v6h-6z"
  />
  <path fill="#000091" d="M28 103h6v6h-6zM39 103h6v6h-6zM50 103h6v6h-6z" />
  <path fill="#000091" d="M55 103h6v6h-6zM61 103h6v6h-6z" />
  <path fill="#000091" d="M66 103h6v6h-6zM82 103h6v6h-6zM88 103h6v6h-6z" />
  <path fill="#000091" d="M93 103h6v6h-6zM6 108h6v6H6zM12 108h6v6h-6z" />
  <path fill="#000091" d="M17 108h6v6h-6zM34 108h6v6h-6z" />
  <path fill="#000091" d="M39 108h6v6h-6zM50 108h6v6h-6z" />
  <path
    fill="#000091"
    d="M55 108h6v6h-6zM66 108h6v6h-6zM77 108h6v6h-6zM93 108h6v6h-6zM1 114h6v6H1zM17 114h6v6h-6zM23 114h6v6h-6z"
  />
  <path
    fill="#000091"
    d="M28 114h6v6h-6zM44 114h6v6h-6zM55 114h6v6h-6zM61 114h6v6h-6z"
  />
  <path fill="#000091" d="M66 114h6v6h-6zM77 114h6v6h-6z" />
  <path fill="#000091" d="M82 114h6v6h-6zM88 114h6v6h-6z" />
  <path fill="#000091" d="M93 114h6v6h-6zM1 119h6v6H1z" />
  <path fill="#000091" d="M6 119h6v6H6zM17 119h6v6h-6zM23 119h6v6h-6z" />
  <path fill="#000091" d="M28 119h6v6h-6zM34 119h6v6h-6z" />
  <path
    fill="#000091"
    d="M39 119h6v6h-6zM82 119h6v6h-6zM93 119h6v6h-6zM12 125h6v6h-6z"
  />
  <path fill="#000091" d="M17 125h6v6h-6zM23 125h6v6h-6zM39 125h6v6h-6z" />
  <path fill="#000091" d="M44 125h6v6h-6zM50 125h6v6h-6zM66 125h6v6h-6z" />
  <path
    fill="#000091"
    d="M71 125h6v6h-6zM77 125h6v6h-6zM93 125h6v6h-6zM6 130h6v6H6zM12 130h6v6h-6zM23 130h6v6h-6zM34 130h6v6h-6zM44 130h6v6h-6zM50 130h6v6h-6z"
  />
  <path fill="#000091" d="M82 130h6v6h-6zM88 130h6v6h-6z" />
  <path fill="#000091" d="M93 130h6v6h-6zM1 136h6v6H1zM12 136h6v6h-6z" />
  <path fill="#000091" d="M17 136h6v6h-6zM39 136h6v6h-6z" />
  <path
    fill="#000091"
    d="M44 136h6v6h-6zM55 136h6v6h-6zM66 136h6v6h-6zM99 136h6v6h-6zM1 141h6v6H1zM28 141h6v6h-6zM34 141h6v6h-6z"
  />
  <path fill="#000091" d="M39 141h6v6h-6z" />
  <path
    fill="#000091"
    d="M44 141h6v6h-6zM50 141h6v6h-6zM66 141h6v6h-6zM77 141h6v6h-6z"
  />
  <path fill="#000091" d="M82 141h6v6h-6zM1 146h6v6H1zM12 146h6v6h-6z" />
  <path
    fill="#000091"
    d="M17 146h6v6h-6zM28 146h6v6h-6zM44 146h6v6h-6zM61 146h6v6h-6z"
  />
  <path
    fill="#000091"
    d="M66 146h6v6h-6zM93 146h6v6h-6zM99 146h6v6h-6zM1 152h6v6H1zM12 152h6v6h-6zM23 152h6v6h-6z"
  />
  <path
    fill="#000091"
    d="M28 152h6v6h-6zM34 152h6v6h-6zM44 152h6v6h-6zM50 152h6v6h-6z"
  />
  <path fill="#000091" d="M55 152h6v6h-6zM66 152h6v6h-6z" />
  <path
    fill="#000091"
    d="M71 152h6v6h-6zM82 152h6v6h-6zM44 157h6v6h-6zM50 157h6v6h-6zM61 157h6v6h-6z"
  />
  <path fill="#000091" d="M66 157h6v6h-6zM1 163h6v6H1z" />
  <path fill="#000091" d="M6 163h6v6H6zM12 163h6v6h-6z" />
  <path fill="#000091" d="M17 163h6v6h-6zM23 163h6v6h-6z" />
  <path
    fill="#000091"
    d="M28 163h6v6h-6zM34 163h6v6h-6zM50 163h6v6h-6zM71 163h6v6h-6zM77 163h6v6h-6z"
  />
  <path
    fill="#000091"
    d="M82 163h6v6h-6zM93 163h6v6h-6zM99 163h6v6h-6zM1 168h6v6H1zM34 168h6v6h-6zM61 168h6v6h-6z"
  />
  <path
    fill="#000091"
    d="M88 168h6v6h-6zM99 168h6v6h-6zM1 173h6v6H1zM12 173h6v6h-6z"
  />
  <path
    fill="#000091"
    d="M17 173h6v6h-6zM23 173h6v6h-6zM34 173h6v6h-6zM44 173h6v6h-6zM50 173h6v6h-6zM61 173h6v6h-6zM88 173h6v6h-6zM99 173h6v6h-6z"
  />
  <path fill="#000091" d="M104 173h6v6h-6zM1 179h6v6H1zM12 179h6v6h-6z" />
  <path
    fill="#000091"
    d="M17 179h6v6h-6zM23 179h6v6h-6zM34 179h6v6h-6zM44 179h6v6h-6zM50 179h6v6h-6zM61 179h6v6h-6zM88 179h6v6h-6zM99 179h6v6h-6z"
  />
  <path fill="#000091" d="M104 179h6v6h-6zM1 184h6v6H1zM12 184h6v6h-6z" />
  <path
    fill="#000091"
    d="M17 184h6v6h-6zM23 184h6v6h-6zM34 184h6v6h-6zM44 184h6v6h-6zM61 184h6v6h-6z"
  />
  <path fill="#000091" d="M66 184h6v6h-6z" />
  <path
    fill="#000091"
    d="M71 184h6v6h-6zM77 184h6v6h-6zM93 184h6v6h-6zM99 184h6v6h-6zM1 190h6v6H1zM34 190h6v6h-6zM50 190h6v6h-6zM66 190h6v6h-6zM88 190h6v6h-6z"
  />
  <path fill="#000091" d="M93 190h6v6h-6zM1 195h6v6H1z" />
  <path fill="#000091" d="M6 195h6v6H6zM12 195h6v6h-6z" />
  <path fill="#000091" d="M17 195h6v6h-6zM23 195h6v6h-6z" />
  <path
    fill="#000091"
    d="M28 195h6v6h-6zM34 195h6v6h-6zM50 195h6v6h-6zM66 195h6v6h-6z"
  />
  <path fill="#000091" d="M71 195h6v6h-6zM77 195h6v6h-6z" />
  <path fill="#000091" d="M82 195h6v6h-6zM88 195h6v6h-6zM99 195h6v6h-6z" />
  <path fill="#e1000f" d="M109 0h6v6h-6zM115 0h6v6h-6z" />
  <path
    fill="#e1000f"
    d="M120 0h6v6h-6zM131 0h6v6h-6zM142 0h6v6h-6zM153 0h6v6h-6zM164 0h6v6h-6z"
  />
  <path fill="#e1000f" d="M169 0h6v6h-6z" />
  <path fill="#e1000f" d="M174 0h6v6h-6zM180 0h6v6h-6z" />
  <path fill="#e1000f" d="M185 0h6v6h-6zM191 0h6v6h-6z" />
  <path fill="#e1000f" d="M196 0h6v6h-6zM104 5h6v6h-6zM142 5h6v6h-6z" />
  <path
    fill="#e1000f"
    d="M147 5h6v6h-6zM153 5h6v6h-6zM164 5h6v6h-6zM196 5h6v6h-6zM109 11h6v6h-6zM120 11h6v6h-6zM153 11h6v6h-6zM164 11h6v6h-6zM174 11h6v6h-6zM180 11h6v6h-6z"
  />
  <path
    fill="#e1000f"
    d="M185 11h6v6h-6zM196 11h6v6h-6zM109 16h6v6h-6zM115 16h6v6h-6z"
  />
  <path fill="#e1000f" d="M120 16h6v6h-6zM126 16h6v6h-6z" />
  <path
    fill="#e1000f"
    d="M131 16h6v6h-6zM137 16h6v6h-6zM164 16h6v6h-6zM174 16h6v6h-6zM180 16h6v6h-6z"
  />
  <path
    fill="#e1000f"
    d="M185 16h6v6h-6zM196 16h6v6h-6zM109 22h6v6h-6zM120 22h6v6h-6zM164 22h6v6h-6zM174 22h6v6h-6zM180 22h6v6h-6z"
  />
  <path fill="#e1000f" d="M185 22h6v6h-6zM196 22h6v6h-6zM104 27h6v6h-6z" />
  <path
    fill="#e1000f"
    d="M109 27h6v6h-6zM120 27h6v6h-6zM126 27h6v6h-6zM147 27h6v6h-6zM153 27h6v6h-6zM164 27h6v6h-6zM196 27h6v6h-6zM109 33h6v6h-6zM120 33h6v6h-6zM131 33h6v6h-6zM142 33h6v6h-6zM153 33h6v6h-6zM164 33h6v6h-6z"
  />
  <path fill="#e1000f" d="M169 33h6v6h-6z" />
  <path fill="#e1000f" d="M174 33h6v6h-6zM180 33h6v6h-6z" />
  <path fill="#e1000f" d="M185 33h6v6h-6zM191 33h6v6h-6z" />
  <path
    fill="#e1000f"
    d="M196 33h6v6h-6zM120 38h6v6h-6zM142 38h6v6h-6zM153 38h6v6h-6zM109 43h6v6h-6z"
  />
  <path fill="#e1000f" d="M115 43h6v6h-6zM126 43h6v6h-6z" />
  <path fill="#e1000f" d="M131 43h6v6h-6zM158 43h6v6h-6zM164 43h6v6h-6z" />
  <path fill="#e1000f" d="M169 43h6v6h-6zM185 43h6v6h-6zM191 43h6v6h-6z" />
  <path fill="#e1000f" d="M196 43h6v6h-6zM104 49h6v6h-6z" />
  <path fill="#e1000f" d="M109 49h6v6h-6zM115 49h6v6h-6z" />
  <path fill="#e1000f" d="M120 49h6v6h-6zM126 49h6v6h-6zM137 49h6v6h-6z" />
  <path fill="#e1000f" d="M142 49h6v6h-6z" />
  <path
    fill="#e1000f"
    d="M147 49h6v6h-6zM153 49h6v6h-6zM164 49h6v6h-6zM191 49h6v6h-6zM109 54h6v6h-6zM120 54h6v6h-6zM137 54h6v6h-6z"
  />
  <path
    fill="#e1000f"
    d="M142 54h6v6h-6zM164 54h6v6h-6zM174 54h6v6h-6zM180 54h6v6h-6z"
  />
  <path fill="#e1000f" d="M185 54h6v6h-6zM191 54h6v6h-6z" />
  <path fill="#e1000f" d="M196 54h6v6h-6zM109 60h6v6h-6zM115 60h6v6h-6z" />
  <path
    fill="#e1000f"
    d="M120 60h6v6h-6zM142 60h6v6h-6zM153 60h6v6h-6zM164 60h6v6h-6zM180 60h6v6h-6z"
  />
  <path fill="#e1000f" d="M115 65h6v6h-6z" />
  <path fill="#e1000f" d="M120 65h6v6h-6zM137 65h6v6h-6z" />
  <path
    fill="#e1000f"
    d="M142 65h6v6h-6zM158 65h6v6h-6zM164 65h6v6h-6zM174 65h6v6h-6zM180 65h6v6h-6z"
  />
  <path
    fill="#e1000f"
    d="M185 65h6v6h-6zM191 65h6v6h-6zM109 71h6v6h-6zM126 71h6v6h-6zM153 71h6v6h-6z"
  />
  <path fill="#e1000f" d="M158 71h6v6h-6zM169 71h6v6h-6zM180 71h6v6h-6z" />
  <path fill="#e1000f" d="M185 71h6v6h-6zM109 76h6v6h-6zM126 76h6v6h-6z" />
  <path fill="#e1000f" d="M131 76h6v6h-6zM142 76h6v6h-6z" />
  <path fill="#e1000f" d="M147 76h6v6h-6zM153 76h6v6h-6zM164 76h6v6h-6z" />
  <path fill="#e1000f" d="M169 76h6v6h-6z" />
  <path fill="#e1000f" d="M174 76h6v6h-6zM180 76h6v6h-6zM191 76h6v6h-6z" />
  <path
    fill="#e1000f"
    d="M196 76h6v6h-6zM120 81h6v6h-6zM126 81h6v6h-6zM142 81h6v6h-6z"
  />
  <path fill="#e1000f" d="M147 81h6v6h-6zM104 87h6v6h-6z" />
  <path
    fill="#e1000f"
    d="M109 87h6v6h-6zM120 87h6v6h-6zM131 87h6v6h-6zM137 87h6v6h-6z"
  />
  <path fill="#e1000f" d="M142 87h6v6h-6zM164 87h6v6h-6z" />
  <path fill="#e1000f" d="M169 87h6v6h-6z" />
  <path
    fill="#e1000f"
    d="M174 87h6v6h-6zM185 87h6v6h-6zM191 87h6v6h-6zM104 92h6v6h-6zM115 92h6v6h-6zM126 92h6v6h-6zM137 92h6v6h-6z"
  />
  <path
    fill="#e1000f"
    d="M142 92h6v6h-6zM153 92h6v6h-6zM169 92h6v6h-6zM180 92h6v6h-6z"
  />
  <path fill="#e1000f" d="M185 92h6v6h-6zM104 98h6v6h-6zM115 98h6v6h-6z" />
  <path fill="#e1000f" d="M120 98h6v6h-6zM137 98h6v6h-6z" />
  <path fill="#e1000f" d="M142 98h6v6h-6z" />
  <path
    fill="#e1000f"
    d="M147 98h6v6h-6zM158 98h6v6h-6zM169 98h6v6h-6zM180 98h6v6h-6z"
  />
  <path fill="#e1000f" d="M185 98h6v6h-6zM191 98h6v6h-6z" />
  <path
    fill="#e1000f"
    d="M196 98h6v6h-6zM109 103h6v6h-6zM120 103h6v6h-6zM126 103h6v6h-6zM147 103h6v6h-6zM153 103h6v6h-6z"
  />
  <path fill="#e1000f" d="M158 103h6v6h-6zM169 103h6v6h-6zM191 103h6v6h-6z" />
  <path fill="#e1000f" d="M196 103h6v6h-6zM104 108h6v6h-6z" />
  <path
    fill="#e1000f"
    d="M109 108h6v6h-6zM120 108h6v6h-6zM131 108h6v6h-6zM137 108h6v6h-6z"
  />
  <path fill="#e1000f" d="M142 108h6v6h-6z" />
  <path fill="#e1000f" d="M147 108h6v6h-6zM158 108h6v6h-6zM164 108h6v6h-6z" />
  <path fill="#e1000f" d="M169 108h6v6h-6z" />
  <path fill="#e1000f" d="M174 108h6v6h-6zM180 108h6v6h-6z" />
  <path fill="#e1000f" d="M185 108h6v6h-6zM191 108h6v6h-6z" />
  <path fill="#e1000f" d="M196 108h6v6h-6zM104 114h6v6h-6z" />
  <path fill="#e1000f" d="M109 114h6v6h-6zM126 114h6v6h-6z" />
  <path
    fill="#e1000f"
    d="M131 114h6v6h-6zM137 114h6v6h-6zM158 114h6v6h-6zM169 114h6v6h-6zM191 114h6v6h-6zM115 119h6v6h-6z"
  />
  <path fill="#e1000f" d="M120 119h6v6h-6zM137 119h6v6h-6z" />
  <path fill="#e1000f" d="M142 119h6v6h-6z" />
  <path
    fill="#e1000f"
    d="M147 119h6v6h-6zM158 119h6v6h-6zM180 119h6v6h-6zM191 119h6v6h-6z"
  />
  <path fill="#e1000f" d="M196 119h6v6h-6zM99 125h6v6h-6z" />
  <path
    fill="#e1000f"
    d="M104 125h6v6h-6zM137 125h6v6h-6zM169 125h6v6h-6zM191 125h6v6h-6z"
  />
  <path
    fill="#e1000f"
    d="M196 125h6v6h-6zM104 130h6v6h-6zM120 130h6v6h-6zM126 130h6v6h-6z"
  />
  <path fill="#e1000f" d="M131 130h6v6h-6zM142 130h6v6h-6zM153 130h6v6h-6z" />
  <path fill="#e1000f" d="M158 130h6v6h-6zM169 130h6v6h-6z" />
  <path fill="#e1000f" d="M174 130h6v6h-6zM180 130h6v6h-6z" />
  <path fill="#e1000f" d="M185 130h6v6h-6zM191 130h6v6h-6z" />
  <path
    fill="#e1000f"
    d="M196 130h6v6h-6zM109 136h6v6h-6zM147 136h6v6h-6zM164 136h6v6h-6z"
  />
  <path
    fill="#e1000f"
    d="M169 136h6v6h-6zM185 136h6v6h-6zM115 141h6v6h-6zM126 141h6v6h-6z"
  />
  <path
    fill="#e1000f"
    d="M131 141h6v6h-6zM137 141h6v6h-6zM147 141h6v6h-6zM153 141h6v6h-6zM164 141h6v6h-6zM174 141h6v6h-6zM180 141h6v6h-6z"
  />
  <path fill="#e1000f" d="M185 141h6v6h-6zM191 141h6v6h-6z" />
  <path
    fill="#e1000f"
    d="M196 141h6v6h-6zM120 146h6v6h-6zM126 146h6v6h-6zM147 146h6v6h-6zM158 146h6v6h-6zM169 146h6v6h-6z"
  />
  <path fill="#e1000f" d="M191 146h6v6h-6z" />
  <path fill="#e1000f" d="M196 146h6v6h-6zM104 152h6v6h-6z" />
  <path fill="#e1000f" d="M109 152h6v6h-6zM126 152h6v6h-6zM137 152h6v6h-6z" />
  <path fill="#e1000f" d="M142 152h6v6h-6z" />
  <path fill="#e1000f" d="M147 152h6v6h-6zM153 152h6v6h-6z" />
  <path fill="#e1000f" d="M158 152h6v6h-6zM164 152h6v6h-6z" />
  <path fill="#e1000f" d="M169 152h6v6h-6z" />
  <path fill="#e1000f" d="M174 152h6v6h-6zM180 152h6v6h-6z" />
  <path
    fill="#e1000f"
    d="M185 152h6v6h-6zM196 152h6v6h-6zM109 157h6v6h-6zM120 157h6v6h-6zM126 157h6v6h-6zM147 157h6v6h-6zM153 157h6v6h-6zM174 157h6v6h-6zM104 163h6v6h-6z"
  />
  <path
    fill="#e1000f"
    d="M109 163h6v6h-6zM115 163h6v6h-6zM137 163h6v6h-6zM153 163h6v6h-6zM164 163h6v6h-6zM174 163h6v6h-6zM180 163h6v6h-6zM191 163h6v6h-6z"
  />
  <path
    fill="#e1000f"
    d="M196 163h6v6h-6zM104 168h6v6h-6zM126 168h6v6h-6zM142 168h6v6h-6zM153 168h6v6h-6zM174 168h6v6h-6z"
  />
  <path fill="#e1000f" d="M191 168h6v6h-6zM115 173h6v6h-6z" />
  <path fill="#e1000f" d="M120 173h6v6h-6zM126 173h6v6h-6zM137 173h6v6h-6z" />
  <path fill="#e1000f" d="M142 173h6v6h-6z" />
  <path fill="#e1000f" d="M147 173h6v6h-6zM153 173h6v6h-6z" />
  <path fill="#e1000f" d="M158 173h6v6h-6zM164 173h6v6h-6z" />
  <path fill="#e1000f" d="M169 173h6v6h-6z" />
  <path
    fill="#e1000f"
    d="M174 173h6v6h-6zM185 173h6v6h-6zM191 173h6v6h-6zM120 179h6v6h-6zM131 179h6v6h-6zM147 179h6v6h-6zM153 179h6v6h-6zM164 179h6v6h-6zM174 179h6v6h-6zM185 179h6v6h-6zM104 184h6v6h-6z"
  />
  <path fill="#e1000f" d="M115 184h6v6h-6z" />
  <path fill="#e1000f" d="M120 184h6v6h-6zM137 184h6v6h-6z" />
  <path
    fill="#e1000f"
    d="M142 184h6v6h-6zM158 184h6v6h-6zM169 184h6v6h-6zM185 184h6v6h-6zM196 184h6v6h-6zM104 190h6v6h-6z"
  />
  <path fill="#e1000f" d="M109 190h6v6h-6zM115 190h6v6h-6z" />
  <path
    fill="#e1000f"
    d="M120 190h6v6h-6zM131 190h6v6h-6zM142 190h6v6h-6zM153 190h6v6h-6z"
  />
  <path
    fill="#e1000f"
    d="M158 190h6v6h-6zM169 190h6v6h-6zM196 190h6v6h-6zM109 195h6v6h-6zM115 195h6v6h-6zM131 195h6v6h-6zM137 195h6v6h-6z"
  />
  <path
    fill="#e1000f"
    d="M142 195h6v6h-6zM174 195h6v6h-6zM185 195h6v6h-6zM191 195h6v6h-6z"
  />
  <path fill="#e1000f" d="M196 195h6v6h-6zM109 141h6v6h-6z" />
</svg>
